<svg xmlns="http://www.w3.org/2000/svg" width="164.011" height="47.066" viewBox="0 0 164.011 47.066"><g transform="translate(-648.327 -4409)"><path d="M231.214,214.63a4.718,4.718,0,0,1-4.722,4.718H71.932A4.724,4.724,0,0,1,67.2,214.63V177.005a4.729,4.729,0,0,1,4.729-4.724h154.56a4.722,4.722,0,0,1,4.722,4.724V214.63Z" transform="translate(581.124 4236.719)" fill="none"/><text transform="translate(762 4437)" fill="#fff" font-size="15" font-family="Vazir-Bold, Vazir" font-weight="700"><tspan x="-94.014" y="0">دریافت مستقیم</tspan></text><g transform="translate(328 2894)"><rect width="25" height="25" transform="translate(440 1526)" fill="rgba(0,0,0,0)"/><path d="M16.889,19H2.111A2.114,2.114,0,0,1,0,16.888V10.555a1.055,1.055,0,0,1,2.111,0v5.277a1.057,1.057,0,0,0,1.056,1.055H15.834a1.057,1.057,0,0,0,1.055-1.055V10.555a1.055,1.055,0,0,1,2.111,0v6.333A2.114,2.114,0,0,1,16.889,19ZM9.5,13.809A1.048,1.048,0,0,1,8.75,13.5l-3.79-3.79A1.053,1.053,0,1,1,6.45,8.222l1.995,1.984V1.055a1.055,1.055,0,0,1,2.111,0v9.151L12.54,8.222a1.053,1.053,0,1,1,1.489,1.489l-3.79,3.79A1.046,1.046,0,0,1,9.5,13.809Z" transform="translate(443 1529)" fill="#15d1c6"/></g></g></svg>